<?xml version="1.0" standalone="no"?>
<!DOCTYPE svg PUBLIC "-//W3C//DTD SVG 20010904//EN"
 "http://www.w3.org/TR/2001/REC-SVG-20010904/DTD/svg10.dtd">
<svg version="1.0" xmlns="http://www.w3.org/2000/svg"
 width="800.000000pt" height="336.000000pt" viewBox="0 0 800.000000 336.000000"
 preserveAspectRatio="xMidYMid meet">

<g transform="translate(0.000000,336.000000) scale(0.100000,-0.100000)"
fill="#000000" stroke="none">
<path d="M5947 3119 c-57 -13 -106 -42 -174 -100 -34 -30 -73 -62 -87 -72 -16
-11 -28 -31 -32 -55 -4 -20 -22 -64 -40 -97 -44 -79 -60 -154 -42 -192 16 -32
59 -58 113 -68 38 -6 39 -6 20 9 -19 15 -18 16 10 6 l30 -10 -24 18 -24 19 34
6 c40 6 57 -10 94 -90 13 -29 35 -68 49 -86 25 -33 25 -35 8 -50 -15 -14 -21
-14 -34 -4 -9 6 -18 19 -21 27 -4 10 -6 8 -6 -6 -1 -30 30 -54 70 -54 26 0 43
-8 64 -30 l28 -30 -54 -23 c-30 -13 -70 -27 -90 -31 -61 -11 -101 -71 -125
-187 -8 -39 -18 -78 -23 -87 -12 -24 -31 -80 -44 -127 -5 -22 -23 -59 -39 -83
-16 -23 -35 -59 -42 -79 -10 -29 -20 -39 -44 -45 -34 -9 -62 -41 -62 -71 0
-10 -18 -44 -40 -74 -22 -31 -40 -64 -40 -73 0 -10 -8 -28 -19 -41 -21 -28
-41 -130 -41 -212 0 -45 5 -62 21 -78 19 -19 20 -25 9 -42 -51 -83 -65 -239
-30 -341 25 -73 50 -115 116 -188 29 -33 51 -65 48 -72 -6 -17 39 -57 62 -54
10 1 60 -18 109 -42 82 -41 99 -46 185 -51 52 -3 79 -7 60 -8 -27 -1 -31 -4
-20 -11 22 -14 221 -12 325 4 167 26 330 92 511 209 79 51 136 77 170 77 12 0
25 3 27 8 8 13 -28 132 -92 306 -66 179 -101 307 -101 369 l0 38 43 -26 c48
-27 88 -31 165 -15 63 14 114 57 148 126 38 78 36 155 -10 304 -19 63 -47 168
-61 233 l-26 117 77 85 c43 47 93 97 112 112 34 25 37 26 91 15 l55 -12 43 42
c41 40 43 41 57 23 12 -16 16 -17 30 -6 18 15 22 41 6 41 -5 0 -7 -6 -4 -14 3
-7 -2 -16 -11 -19 -12 -5 -14 -1 -9 21 9 36 12 40 34 52 15 8 17 6 13 -8 -2
-10 3 -24 12 -32 14 -12 20 -10 41 13 l25 27 -31 14 -31 13 25 17 c14 9 26 13
26 8 0 -4 6 -16 13 -26 11 -15 17 -17 35 -7 27 14 28 29 5 47 -16 12 -16 13 8
14 59 0 91 80 53 132 -13 17 -28 46 -35 65 -11 34 -41 50 -79 40 -11 -3 -21 1
-24 10 -9 21 -50 12 -54 -12 -2 -18 -2 -18 8 -2 12 19 44 24 38 5 -3 -7 -15
-18 -27 -24 -13 -7 -28 -17 -34 -23 -15 -15 -27 -14 -21 3 8 20 -12 29 -36 16
-14 -8 -20 -19 -18 -37 2 -21 -3 -29 -30 -40 -32 -13 -32 -13 -26 13 6 22 4
25 -12 22 -15 -3 -18 -11 -17 -36 2 -23 -2 -34 -17 -42 -22 -12 -44 -5 -34 11
3 5 15 7 26 3 14 -4 18 -2 14 5 -10 16 -31 14 -46 -4 -9 -11 -10 -18 -1 -29 9
-11 5 -16 -18 -26 -17 -7 -35 -25 -42 -43 -15 -37 -79 -108 -161 -179 l-58
-50 -16 36 c-18 37 -46 54 -129 79 -58 17 -214 64 -265 80 -19 5 -57 31 -85
57 -27 26 -60 51 -72 54 -31 10 -38 48 -19 96 19 49 20 60 3 60 -8 0 -13 20
-15 63 -4 84 -30 214 -53 259 -26 51 -67 87 -109 94 -19 4 -44 14 -55 24 -47
41 -102 49 -188 29z m48 -16 c-67 -15 -96 -25 -107 -36 -26 -23 -77 -57 -88
-57 -6 0 6 14 26 32 38 34 122 68 164 67 20 -1 21 -2 5 -6z m76 -46 c-8 -8
-14 -8 -23 2 -11 10 -9 11 6 5 16 -6 17 -3 12 17 -6 21 -6 22 5 6 8 -14 8 -22
0 -30z m-36 -27 c8 -13 -5 -13 -25 0 -13 8 -13 10 2 10 9 0 20 -4 23 -10z
m175 6 c0 -2 -7 -6 -15 -10 -8 -3 -15 -1 -15 4 0 6 7 10 15 10 8 0 15 -2 15
-4z m-207 -42 c-3 -8 -14 -14 -25 -14 -17 0 -16 -3 9 -26 25 -22 25 -24 3 -10
-13 9 -35 16 -47 16 -36 0 -27 18 12 26 28 5 33 9 25 19 -9 11 -7 12 9 8 12
-3 17 -11 14 -19z m194 10 c-3 -3 -12 -4 -19 -1 -8 3 -5 6 6 6 11 1 17 -2 13
-5z m-90 -22 c-10 -10 -17 -22 -17 -27 0 -4 -11 -23 -26 -42 -17 -23 -21 -33
-11 -33 24 0 47 -35 49 -73 1 -27 7 -38 25 -46 13 -6 46 -31 73 -57 46 -43 49
-44 52 -22 4 30 31 30 38 -1 5 -21 7 -22 18 -8 19 22 11 50 -16 62 -25 11 -26
14 -12 49 21 57 60 15 60 -65 0 -50 -24 -109 -44 -109 -10 0 -13 -6 -9 -16 4
-12 7 -13 14 -3 10 17 11 16 39 -67 28 -84 22 -108 -41 -170 l-39 -39 20 59
c24 70 25 93 3 51 -28 -53 -85 -117 -132 -146 -65 -42 -123 -40 -176 5 l-39
33 23 13 c18 9 25 9 31 0 5 -8 18 -8 54 1 37 9 47 16 43 29 -3 13 6 19 39 28
23 6 52 22 63 34 21 22 28 72 12 82 -9 6 -26 -22 -23 -37 1 -4 -1 -6 -5 -6
-21 3 -34 -2 -28 -11 9 -15 -43 -1 -75 19 -23 14 -24 14 -12 0 11 -14 9 -16
-13 -16 -13 0 -22 3 -19 8 7 12 -28 -1 -48 -18 -9 -8 -27 -13 -40 -11 -21 3
-23 9 -28 70 -3 46 -11 73 -22 85 -11 11 -18 13 -18 5 0 -7 -15 -12 -39 -12
l-39 0 -13 70 c-14 81 -9 92 45 95 27 2 49 14 91 52 30 28 55 57 55 64 0 11 2
11 10 -1 7 -11 10 -11 10 -2 0 7 4 11 9 8 4 -3 30 26 56 64 27 39 53 70 58 70
6 0 3 -8 -6 -18z m80 2 c-3 -3 -12 -4 -19 -1 -8 3 -5 6 6 6 11 1 17 -2 13 -5z
m-387 -8 c0 -2 -7 -7 -16 -10 -8 -3 -12 -2 -9 4 6 10 25 14 25 6z m377 -22
c-3 -3 -12 -4 -19 -1 -8 3 -5 6 6 6 11 1 17 -2 13 -5z m-244 -11 c-7 -2 -21
-2 -30 0 -10 3 -4 5 12 5 17 0 24 -2 18 -5z m-223 -6 c0 -2 -10 -12 -22 -23
l-23 -19 19 23 c18 21 26 27 26 19z m193 -14 c-13 -2 -33 -2 -45 0 -13 2 -3 4
22 4 25 0 35 -2 23 -4z m267 -25 c0 -7 -5 -6 -13 1 -8 6 -18 7 -22 3 -5 -4 -5
-2 -1 5 8 14 36 6 36 -9z m-484 -30 c-2 -15 -66 -105 -66 -93 0 9 60 105 65
105 2 0 2 -6 1 -12z m189 2 c4 -6 -12 -10 -42 -10 -35 0 -44 3 -33 10 20 13
67 13 75 0z m-42 -31 c-8 -8 -16 -8 -30 0 -16 9 -14 10 12 11 21 0 26 -3 18
-11z m38 -26 c13 -17 13 -17 -6 -3 -11 8 -22 16 -24 17 -2 2 0 3 6 3 6 0 17
-8 24 -17z m-74 -19 c-3 -3 -12 -4 -19 -1 -8 3 -5 6 6 6 11 1 17 -2 13 -5z
m-101 -56 c-15 -18 -36 -51 -47 -73 -12 -24 -18 -30 -15 -16 3 13 0 33 -6 44
-8 15 -7 18 3 12 8 -6 11 -4 7 7 -4 8 -1 15 7 15 8 0 11 -7 8 -16 -3 -9 9 1
26 22 40 45 54 50 17 5z m611 -50 c-3 -8 -6 -5 -6 6 -1 11 2 17 5 13 3 -3 4
-12 1 -19z m-587 -76 c-7 -3 -16 2 -21 9 -16 25 -9 32 12 13 13 -12 16 -20 9
-22z m1681 -29 c-9 -17 -10 -17 -17 1 -4 11 -2 21 7 27 18 11 24 -5 10 -28z
m-97 -28 c-4 -8 -8 -15 -10 -15 -2 0 -4 7 -4 15 0 8 4 15 10 15 5 0 7 -7 4
-15z m180 3 c-6 -10 -4 -10 8 0 12 10 18 10 23 1 4 -6 -7 -24 -26 -43 -19 -17
-25 -20 -14 -7 15 17 17 25 8 28 -16 6 -17 33 -2 33 5 0 7 -6 3 -12z m-1584
-76 c0 -26 5 -53 12 -60 8 -8 9 -15 2 -22 -7 -7 -20 3 -41 32 -41 58 -49 85
-26 91 48 13 53 9 53 -41z m1510 38 c0 -5 -7 -10 -16 -10 -9 0 -12 -5 -8 -12
4 -7 4 -10 -1 -6 -4 4 -15 2 -23 -5 -13 -11 -14 -9 -1 10 7 12 20 24 29 27 8
2 16 4 18 5 1 0 2 -3 2 -9z m40 -34 c0 -2 -8 -10 -17 -17 -16 -13 -17 -12 -4
4 13 16 21 21 21 13z m-1054 -100 c-7 -62 -54 -161 -95 -200 l-31 -30 0 30 c0
16 -4 36 -9 43 -7 10 -8 0 -6 -30 l5 -44 -11 45 c-6 25 -13 47 -15 49 -1 2
-22 -13 -45 -33 -24 -20 -47 -36 -52 -36 -6 0 -7 3 -4 7 4 3 -1 11 -10 18 -14
10 -12 11 13 8 25 -4 41 8 125 89 67 65 100 105 109 132 11 33 14 36 23 21 5
-10 7 -41 3 -69z m875 41 c-10 -9 -11 -8 -5 6 3 10 9 15 12 12 3 -3 0 -11 -7
-18z m222 3 c-3 -12 -8 -19 -11 -16 -5 6 5 36 12 36 2 0 2 -9 -1 -20z m-133
-4 c0 -2 -8 -10 -17 -17 -16 -13 -17 -12 -4 4 13 16 21 21 21 13z m-36 -34 c3
-5 -1 -9 -9 -9 -8 0 -12 4 -9 9 3 4 7 8 9 8 2 0 6 -4 9 -8z m261 -11 c3 -5 1
-12 -5 -16 -5 -3 -10 1 -10 9 0 18 6 21 15 7z m-1565 -17 c0 -2 -7 -4 -15 -4
-8 0 -15 4 -15 10 0 5 7 7 15 4 8 -4 15 -8 15 -10z m1193 -8 c-3 -13 0 -27 6
-30 20 -13 12 -27 -9 -16 -11 6 -20 8 -20 4 0 -3 -7 -1 -15 6 -23 19 -59 -15
-44 -42 10 -19 11 -19 32 -1 l22 18 -19 -22 c-15 -19 -16 -23 -4 -23 8 0 15
-7 15 -15 0 -22 -10 -19 -47 20 -25 26 -37 32 -47 24 -7 -6 -10 -16 -6 -22 3
-5 1 -7 -5 -3 -6 3 -13 2 -17 -3 -6 -11 34 -63 44 -56 4 2 8 -5 8 -16 2 -18 0
-18 -17 3 l-18 23 -24 -20 -23 -20 18 21 c29 34 19 40 -15 8 l-33 -29 29 33
c34 37 17 44 -19 7 -30 -29 -31 -37 -4 -61 11 -10 25 -28 31 -39 6 -11 -8 -2
-31 19 l-41 40 -30 -29 c-28 -27 -41 -53 -20 -40 6 3 10 1 10 -6 0 -7 12 -27
27 -43 17 -18 10 -15 -14 8 l-43 40 -25 -24 c-30 -29 -34 -51 -4 -24 22 19 22
19 8 -3 -12 -19 -10 -25 14 -49 15 -15 27 -30 27 -35 0 -5 -18 11 -40 34 l-39
42 -27 -27 -27 -26 24 -30 c32 -41 48 -46 73 -25 12 9 -15 -20 -58 -65 l-80
-81 -20 30 c-14 19 -27 28 -38 25 -24 -6 -23 -4 14 30 18 16 25 20 16 9 -15
-19 -15 -22 9 -49 l25 -29 21 21 c20 21 20 22 2 42 -15 16 -21 18 -33 7 -11
-8 -13 -8 -9 0 4 6 4 18 1 27 -5 14 -9 14 -23 4 -13 -10 -14 -10 -3 2 15 18
16 34 0 24 -7 -5 -8 -3 -3 6 6 10 11 9 21 -5 11 -15 16 -16 29 -5 9 7 21 22
27 33 8 17 8 19 -6 14 -28 -11 -26 9 4 38 17 16 30 25 30 21 0 -7 143 128 262
247 21 21 42 36 47 33 11 -7 43 29 34 38 -4 4 -1 5 7 2 8 -3 26 3 40 14 14 11
26 20 26 20 1 0 -1 -11 -3 -24z m69 -2 c-2 -5 -9 -8 -17 -6 -7 1 -16 -2 -20
-8 -3 -5 -10 -10 -16 -10 -5 0 -1 8 9 18 17 19 50 23 44 6z m105 -16 c-3 -8
-6 -5 -6 6 -1 11 2 17 5 13 3 -3 4 -12 1 -19z m-72 -28 c-3 -5 -13 -6 -22 -3
-12 5 -14 3 -8 -7 6 -9 4 -11 -5 -5 -10 6 -9 11 5 21 19 14 39 9 30 -6z m202
3 c-9 -9 -19 -14 -23 -11 -10 10 6 28 24 28 15 0 15 -1 -1 -17z m-909 -105
c-33 -62 -86 -169 -117 -238 -31 -69 -62 -136 -69 -150 l-12 -25 6 25 c15 55
189 420 226 473 36 50 27 28 -34 -85z m647 62 c-3 -5 -12 -10 -18 -10 -7 0 -6
4 3 10 19 12 23 12 15 0z m-1313 -83 c-65 -65 -71 -77 -49 -96 11 -8 19 -5 38
15 52 56 61 44 9 -14 -41 -45 -62 -61 -82 -61 -15 -1 -29 -5 -33 -11 -3 -5
-12 -49 -20 -97 l-15 -88 6 70 c8 107 21 147 47 145 38 -4 47 0 47 17 0 9 -8
25 -17 36 -17 18 -15 21 52 82 39 36 72 64 75 65 2 0 -24 -28 -58 -63z m460
-7 c15 -26 21 -29 37 -20 11 5 28 10 38 9 10 0 0 -7 -21 -15 -47 -17 -56 -11
-81 51 -17 43 -3 31 27 -25z m394 27 c-29 -38 -69 -125 -86 -187 -6 -23 -14
-40 -16 -37 -18 17 92 257 117 257 6 0 -1 -15 -15 -33z m-749 3 c-1 -13 -8
-20 -22 -20 -29 0 -37 10 -24 27 18 21 48 16 46 -7z m42 -9 c9 -16 8 -18 -9
-14 -11 3 -20 12 -20 19 0 20 18 17 29 -5z m-254 -42 c-43 -48 -62 -89 -74
-161 -9 -52 -9 -52 -10 -12 -2 69 25 138 69 178 54 48 61 46 15 -5z m429 -179
c-36 -111 -71 -230 -78 -263 -18 -90 -36 -85 -38 10 l-2 78 -3 -67 c-4 -72 -8
-76 -58 -62 -19 5 -21 12 -18 102 3 115 -3 111 -12 -8 l-7 -85 -55 -27 -55
-27 6 37 c3 20 8 66 11 102 8 78 29 177 52 242 16 44 18 46 30 28 12 -17 18
-18 35 -9 20 11 21 9 15 -18 -3 -17 -8 -54 -12 -84 -4 -40 0 -32 14 34 11 49
27 99 36 113 20 30 53 31 64 2 5 -13 11 -22 15 -20 3 1 18 -1 32 -4 31 -8 39
2 48 60 6 36 33 82 43 72 2 -2 -26 -95 -63 -206z m90 -4 c-20 -48 -38 -85 -41
-83 -2 2 13 43 34 90 20 48 39 85 41 83 2 -2 -13 -43 -34 -90z m-625 -76 c0
-10 -3 -8 -9 5 -12 27 -12 43 0 25 5 -8 9 -22 9 -30z m941 -5 c-9 -10 -9 -15
-1 -15 6 0 11 -4 11 -9 0 -6 -9 -9 -19 -8 -11 0 -18 4 -17 7 2 3 6 13 9 23 4
9 12 17 18 17 8 0 8 -4 -1 -15z m-963 -32 c-3 -10 -5 -4 -5 12 0 17 2 24 5 18
2 -7 2 -21 0 -30z m961 -68 c42 -31 68 -58 78 -83 9 -20 25 -56 35 -80 37 -82
17 -189 -49 -262 -26 -29 -48 -42 -72 -46 -49 -8 -69 11 -76 71 -4 37 -3 46 5
35 6 -8 11 -26 11 -41 0 -103 139 -30 174 92 13 43 14 67 7 98 -13 58 -21 63
-21 12 0 -61 -24 -99 -75 -122 -32 -14 -49 -17 -67 -10 -17 7 -18 10 -5 10 9
1 17 8 17 17 0 11 -8 15 -27 13 -16 -1 -36 -1 -45 -1 -24 3 -78 85 -78 119 l1
28 27 -30 c16 -16 37 -37 47 -45 11 -8 1 6 -22 32 -38 42 -63 92 -51 103 2 2
37 -26 78 -62 l75 -66 -74 75 c-50 52 -72 81 -68 92 7 17 27 22 27 7 0 -4 28
-29 63 -55 l62 -48 -57 54 c-38 36 -58 64 -63 87 -5 25 -10 30 -17 20 -7 -11
-8 -9 -6 6 2 12 11 20 23 20 16 0 20 -6 18 -28 -1 -15 2 -25 8 -22 5 3 39 -14
76 -37 97 -63 97 -63 89 -49 -8 13 -126 91 -138 91 -9 0 -11 32 -2 54 4 10 10
12 17 6 7 -6 40 -30 75 -55z m-984 44 c-3 -6 -10 -34 -14 -63 l-8 -51 -1 43
c-1 40 12 82 25 82 3 0 2 -5 -2 -11z m108 -164 c2 -71 1 -116 -3 -100 -7 30
-11 259 -4 240 2 -5 5 -68 7 -140z m-163 21 c-7 -14 -16 -26 -21 -26 -4 0 -8
-11 -8 -25 0 -14 -4 -25 -10 -25 -16 0 -12 21 16 67 27 47 43 53 23 9z m841
-17 c0 -4 -7 -9 -15 -13 -8 -3 -15 -1 -15 5 0 6 -5 7 -12 3 -6 -4 -8 -3 -5 2
6 11 47 13 47 3z m-455 -38 c-67 -30 -136 -132 -151 -223 -4 -21 -11 -35 -16
-32 -5 3 -6 -6 -3 -23 5 -22 4 -25 -5 -13 -9 12 -11 10 -7 -12 2 -15 0 -25 -4
-22 -5 3 -8 -5 -7 -18 3 -34 -29 -76 -74 -99 -50 -26 -61 -18 -14 9 47 28 64
58 93 160 27 94 81 208 116 240 27 25 77 52 97 52 8 0 -3 -9 -25 -19z m136
-14 c1 -7 0 -16 -1 -22 -1 -5 -3 -15 -3 -22 0 -7 -4 -10 -8 -7 -4 2 -15 -6
-23 -18 -18 -25 -21 -75 -6 -98 7 -10 8 -3 5 25 -4 38 -4 38 4 7 5 -18 17 -42
27 -53 18 -20 19 -19 110 72 59 59 94 87 99 79 4 -6 13 -9 21 -6 9 3 11 0 7
-11 -5 -12 -3 -14 7 -8 8 5 11 4 7 -2 -4 -6 2 -18 13 -28 22 -20 26 -35 8 -35
-6 0 -8 3 -5 7 10 10 -34 54 -46 46 -6 -3 -7 -1 -3 5 13 22 -10 12 -34 -13
-24 -25 -21 -47 3 -27 11 9 20 4 43 -21 l29 -32 -31 28 c-39 35 -57 18 -23
-21 13 -15 6 -10 -16 10 -31 30 -37 40 -27 50 20 20 13 32 -8 13 -11 -10 -20
-23 -19 -29 1 -6 -2 -21 -6 -34 -6 -18 -10 -20 -21 -11 -8 7 -17 9 -21 5 -4
-3 13 -28 38 -54 l44 -47 -47 44 -48 45 -25 -24 c-14 -13 -25 -31 -25 -39 1
-14 3 -13 14 2 12 16 16 13 51 -30 l38 -48 -39 38 c-52 49 -66 35 -17 -17 l38
-41 -40 37 -40 37 -17 -21 c-10 -12 -18 -17 -18 -11 0 6 7 16 15 23 8 7 12 16
9 22 -3 5 -14 -1 -25 -13 -10 -12 -19 -18 -19 -14 0 5 10 19 22 32 18 19 19
23 5 23 -9 0 -25 10 -37 22 -28 31 -26 86 5 128 30 40 30 47 8 73 -17 19 -17
20 5 8 12 -6 23 -17 23 -24z m259 29 c0 -2 -8 -10 -17 -17 -16 -13 -17 -12 -4
4 13 16 21 21 21 13z m-139 -23 c13 -16 12 -17 -3 -4 -10 7 -18 15 -18 17 0 8
8 3 21 -13z m183 -9 c7 -19 2 -18 -19 6 -16 17 -16 20 -3 15 9 -4 19 -13 22
-21z m-258 -19 c-3 -9 -10 -13 -16 -10 -6 4 -5 11 3 20 15 16 22 11 13 -10z
m240 -12 c25 -35 26 -36 4 -18 -43 36 -49 43 -43 49 9 9 8 10 39 -31z m451 4
c-22 -7 -35 -15 -31 -19 4 -5 5 -8 1 -8 -3 0 -9 5 -12 10 -7 11 30 29 60 29
11 0 3 -6 -18 -12z m-1219 -8 c-9 -5 -49 -13 -88 -18 -39 -5 -77 -15 -85 -21
-10 -8 -15 -9 -15 -2 0 18 35 32 82 33 24 1 57 5 73 9 43 11 52 11 33 -1z
m465 -44 c-3 -9 -8 -14 -10 -11 -3 3 -2 9 2 15 9 16 15 13 8 -4z m833 -13 c12
-9 27 -28 33 -42 12 -24 11 -24 -9 3 -12 15 -25 25 -30 22 -4 -2 -15 4 -25 15
-23 26 0 27 31 2z m-1159 -24 c-3 -7 -5 -2 -5 12 0 14 2 19 5 13 2 -7 2 -19 0
-25z m-277 12 c-8 -5 -19 -10 -25 -10 -5 0 -3 5 5 10 8 5 20 10 25 10 6 0 3
-5 -5 -10z m-15 -54 c-22 -7 -50 -18 -62 -25 -13 -6 -23 -9 -23 -6 0 10 83 45
105 44 11 0 2 -6 -20 -13z m816 -3 c13 -17 13 -17 -6 -3 -11 8 -22 16 -24 17
-2 2 0 3 6 3 6 0 17 -8 24 -17z m-31 -14 c0 -5 6 -7 13 -3 6 4 9 4 5 -1 -4 -4
-2 -15 5 -24 7 -9 2 -8 -15 4 -28 21 -36 35 -18 35 6 0 10 -5 10 -11z m-45
-49 c21 -22 37 -40 34 -40 -3 0 -23 18 -44 40 -21 22 -37 40 -34 40 3 0 23
-18 44 -40z m-681 14 c9 -3 16 -10 16 -15 0 -6 -8 -5 -19 1 -32 17 -73 12 -99
-12 -23 -21 -23 -11 1 20 10 12 74 17 101 6z m446 -71 l32 -26 -30 -23 c-16
-13 -37 -35 -46 -49 -16 -24 -16 -26 13 -54 16 -16 27 -32 23 -37 -4 -4 -2 -4
4 -1 6 4 30 -10 54 -30 l43 -37 33 38 c26 30 31 42 24 57 -7 12 -7 20 0 24 5
3 10 -2 10 -13 0 -40 74 -77 120 -60 14 5 35 19 47 30 32 30 54 18 43 -23 -12
-41 -38 -68 -125 -134 -90 -67 -100 -79 -130 -155 -54 -138 -98 -160 -179 -89
-25 22 -46 45 -46 51 0 6 7 5 16 -3 13 -11 19 -8 42 21 15 18 36 46 46 62 l19
29 -72 70 c-44 42 -69 73 -65 80 5 8 3 9 -7 3 -8 -5 -21 -7 -31 -6 -13 2 -39
-24 -75 -77 -1 -2 -10 2 -18 9 -15 12 -15 14 0 23 15 8 15 11 -4 28 -45 42
-39 63 36 137 38 37 90 93 116 125 27 31 54 57 62 57 7 0 28 -12 45 -27z
m-550 3 c-19 -7 -43 -17 -52 -21 -10 -4 -18 -4 -18 -1 0 10 62 35 85 35 12 0
7 -5 -15 -13z m874 -24 c-10 -15 -34 -47 -54 -72 -21 -25 -40 -52 -43 -60 -5
-13 -6 -13 -6 1 -1 9 22 44 49 78 28 34 50 69 50 77 0 8 5 12 11 9 6 -5 4 -16
-7 -33z m-153 -49 c8 -10 -10 2 -38 26 -29 24 -53 46 -53 48 0 7 75 -54 91
-74z m19 52 c16 -17 20 -29 13 -36 -7 -7 -14 -4 -24 8 -13 16 -12 17 4 4 23
-18 22 2 -2 23 -11 10 -25 15 -30 11 -6 -3 -11 -1 -11 4 0 19 26 12 50 -14z
m545 -4 c-3 -6 -11 -11 -17 -11 -6 0 -6 6 2 15 14 17 26 13 15 -4z m-1203 -12
c13 -5 34 -26 48 -44 14 -19 32 -37 41 -40 12 -4 79 -96 79 -109 0 -1 -12 -2
-27 -1 -19 0 -34 10 -50 34 -13 19 -23 28 -23 22 0 -8 -8 -10 -22 -6 -22 5
-22 5 2 -12 14 -10 41 -33 60 -52 l35 -35 -25 -8 c-21 -6 -20 -7 8 -3 24 3 32
1 32 -10 0 -20 -37 -33 -80 -29 -35 4 -35 4 -7 -7 19 -8 36 -8 57 0 17 5 30 6
30 2 0 -18 -41 -43 -79 -48 -33 -5 -49 0 -90 26 -63 38 -67 33 -6 -9 52 -36
99 -48 120 -30 18 15 20 -1 3 -18 -35 -35 -147 5 -167 60 -7 18 -17 40 -22 48
-30 51 -59 121 -59 144 0 58 67 125 110 111 22 -7 27 -25 8 -26 -15 0 15 -13
55 -23 l28 -7 -27 30 c-47 54 -108 49 -171 -12 -27 -25 -33 -39 -33 -73 0 -27
7 -51 21 -68 24 -31 18 -35 -10 -5 -41 44 -34 116 15 161 49 44 103 57 146 37z
m594 -29 c24 -22 41 -40 37 -40 -3 0 -25 18 -49 40 -24 22 -41 40 -37 40 3 0
25 -18 49 -40z m-451 -58 c-5 -22 -8 -23 -21 -11 -12 13 -12 20 3 59 l18 45 3
-34 c2 -19 1 -45 -3 -59z m1097 73 c0 -5 -5 -11 -11 -13 -6 -2 -11 4 -11 13 0
9 5 15 11 13 6 -2 11 -8 11 -13z m-692 -50 c34 -37 36 -42 11 -20 -59 52 -69
63 -63 69 3 3 6 5 6 3 1 -1 21 -25 46 -52z m28 14 c32 -39 23 -37 -19 7 -18
19 -27 32 -19 29 8 -4 25 -20 38 -36z m-49 -34 c43 -46 51 -58 41 -70 -7 -8
-17 -12 -24 -8 -6 4 -15 8 -21 8 -41 4 -57 37 -32 65 6 8 2 6 -11 -5 -21 -17
-24 -17 -38 -3 -15 15 -15 18 2 42 11 14 22 26 25 26 3 0 30 -25 58 -55z m746
45 c-3 -5 -10 -10 -16 -10 -5 0 -9 5 -9 10 0 6 7 10 16 10 8 0 12 -4 9 -10z
m30 -20 c-3 -5 -10 -10 -16 -10 -5 0 -9 5 -9 10 0 6 7 10 16 10 8 0 12 -4 9
-10z m-425 -80 c0 -48 -18 -85 -57 -121 -52 -46 -69 -54 -26 -11 55 54 76 96
71 138 -2 19 0 34 4 34 4 0 8 -18 8 -40z m35 30 c3 -6 -1 -7 -9 -4 -18 7 -21
14 -7 14 6 0 13 -4 16 -10z m-133 -30 c-18 -17 -42 -30 -55 -29 -17 1 -16 3 9
10 17 5 39 18 49 29 10 11 21 20 24 20 3 0 -9 -14 -27 -30z m-87 -18 c-6 -7
-45 19 -45 29 0 5 11 2 24 -8 13 -10 23 -19 21 -21z m257 -16 c0 -71 -53 -135
-172 -206 -68 -41 -75 -61 -75 -245 0 -152 -1 -163 -26 -216 -15 -31 -43 -75
-64 -98 -39 -43 -162 -111 -199 -110 -12 0 4 9 34 21 111 42 183 110 222 208
19 49 22 72 20 205 -2 181 2 190 109 261 102 70 134 112 134 179 0 30 4 50 9
45 4 -4 8 -24 8 -44z m-352 27 c-1 -5 -10 -19 -20 -32 -17 -19 -23 -21 -35
-11 -8 7 -15 17 -15 22 0 7 5 6 13 -1 11 -8 18 -6 32 9 19 21 25 24 25 13z
m-425 -75 c9 -14 11 -24 5 -26 -14 -5 -40 17 -40 34 0 21 17 17 35 -8z m119
-50 c-5 -9 -2 -9 9 1 14 11 20 11 32 1 8 -7 12 -17 8 -23 -3 -5 -2 -7 4 -4 5
3 33 -14 61 -39 l51 -45 -39 -36 c-22 -19 -40 -40 -40 -46 0 -6 16 7 36 29
l36 39 -32 -43 c-26 -34 -35 -40 -46 -31 -8 6 -11 16 -7 22 3 5 1 7 -4 4 -13
-8 -113 79 -113 97 0 7 10 21 22 32 l21 19 -18 -27 c-24 -39 -11 -35 16 4 13
17 18 28 11 24 -7 -4 -12 -2 -12 4 0 6 -4 8 -10 5 -6 -3 -7 1 -4 9 3 9 10 16
16 16 5 0 6 -6 2 -12z m-471 -40 c-11 -18 -25 -44 -31 -58 l-12 -25 6 25 c7
27 42 90 51 90 2 0 -4 -15 -14 -32z m-46 -110 c-3 -8 -6 -5 -6 6 -1 11 2 17 5
13 3 -3 4 -12 1 -19z m442 -24 c22 -20 38 -40 35 -45 -3 -5 1 -7 8 -4 16 6 81
-52 73 -65 -4 -6 -18 4 -32 21 -14 16 -31 28 -37 26 -17 -7 -36 17 -36 44 0 6
-7 9 -15 5 -8 -3 -14 -2 -14 2 3 20 -2 25 -12 12 -9 -13 -10 -12 -5 3 5 15 2
17 -14 12 -19 -6 -27 5 -13 18 11 12 19 8 62 -29z m-209 11 c7 -8 20 -15 30
-15 31 0 29 -12 -16 -66 -24 -30 -54 -74 -65 -97 -30 -60 -48 -77 -80 -77 -56
0 -63 84 -17 178 37 72 117 114 148 77z m629 -58 c3 -39 5 -115 5 -167 0 -83
-3 -102 -26 -150 -15 -30 -47 -78 -72 -106 -44 -50 -147 -114 -182 -114 -11 1
-2 7 18 14 112 40 210 150 244 274 16 56 16 74 5 171 -11 88 -10 151 2 151 1
0 4 -33 6 -73z m-390 -194 c1 -18 -18 -16 -25 2 -4 8 -10 15 -16 15 -5 0 -6
-6 -2 -12 10 -17 -20 6 -68 51 -20 19 -35 38 -32 42 2 4 -7 17 -22 28 -14 11
-23 25 -19 31 7 12 183 -138 184 -157z m101 22 c26 -31 -18 -71 -47 -43 -12
12 -13 20 -4 37 14 25 34 27 51 6z m176 -19 c10 -8 16 -18 11 -22 -4 -4 -7 -1
-8 7 -1 8 -4 3 -8 -11 -8 -29 -44 -34 -49 -7 -9 44 17 59 54 33z m-46 -111
c18 -22 3 -55 -26 -55 -13 0 -24 2 -24 4 0 2 -3 11 -6 19 -5 14 19 47 35 47 5
0 14 -7 21 -15z m-127 -55 c6 -22 -18 -53 -36 -47 -22 7 -31 35 -18 51 19 22
48 20 54 -4z m-373 -80 c0 -5 -2 -10 -4 -10 -3 0 -8 5 -11 10 -3 6 -1 10 4 10
6 0 11 -4 11 -10z"/>
<path d="M6290 2779 c-12 -22 -12 -23 3 -10 15 12 18 10 26 -10 6 -14 10 -18
10 -8 1 8 -5 24 -13 34 -13 18 -14 18 -26 -6z"/>
<path d="M6022 2665 c-18 -8 -48 -25 -65 -37 -18 -13 -39 -22 -47 -20 -13 2
-13 1 0 -7 23 -14 110 -25 110 -13 0 8 18 17 57 27 6 2 19 8 30 15 15 9 8 10
-37 7 l-55 -4 37 16 c21 9 38 19 38 24 0 11 -32 8 -68 -8z"/>
<path d="M6303 2510 c0 -30 2 -43 4 -27 2 15 2 39 0 55 -2 15 -4 2 -4 -28z"/>
<path d="M6010 2490 c8 -5 20 -10 25 -10 6 0 3 5 -5 10 -8 5 -19 10 -25 10 -5
0 -3 -5 5 -10z"/>
<path d="M7175 2341 c-6 -11 9 -23 19 -14 9 9 7 23 -3 23 -6 0 -12 -4 -16 -9z"/>
<path d="M6769 1993 l-24 -28 28 24 c15 14 27 26 27 28 0 8 -8 1 -31 -24z"/>
<path d="M6760 1925 l-24 -26 27 -27 27 -27 25 26 25 25 -28 27 -28 27 -24
-25z"/>
<path d="M6182 2030 c0 -14 2 -19 5 -12 2 6 2 18 0 25 -3 6 -5 1 -5 -13z"/>
<path d="M6120 1986 c0 -8 5 -18 10 -21 6 -3 10 1 10 9 0 8 -4 18 -10 21 -5 3
-10 -1 -10 -9z"/>
<path d="M6172 1975 c0 -16 2 -22 5 -12 2 9 2 23 0 30 -3 6 -5 -1 -5 -18z"/>
<path d="M6162 1915 c0 -16 2 -22 5 -12 2 9 2 23 0 30 -3 6 -5 -1 -5 -18z"/>
<path d="M6153 1845 c0 -22 2 -30 4 -17 2 12 2 30 0 40 -3 9 -5 -1 -4 -23z"/>
<path d="M6106 1821 c-4 -5 -2 -12 3 -15 5 -4 12 -2 15 3 4 5 2 12 -3 15 -5 4
-12 2 -15 -3z"/>
<path d="M6095 1771 c-6 -11 9 -23 19 -14 9 9 7 23 -3 23 -6 0 -12 -4 -16 -9z"/>
<path d="M6650 1646 c0 -2 8 -10 18 -17 15 -13 16 -12 3 4 -13 16 -21 21 -21
13z"/>
<path d="M6330 1575 c-8 -9 -8 -15 -2 -15 12 0 26 19 19 26 -2 2 -10 -2 -17
-11z"/>
<path d="M6255 1499 c-11 -17 1 -21 15 -4 8 9 8 15 2 15 -6 0 -14 -5 -17 -11z"/>
<path d="M5959 1163 c-13 -16 -12 -17 4 -4 16 13 21 21 13 21 -2 0 -10 -8 -17
-17z"/>
<path d="M5919 1113 c-13 -16 -12 -17 4 -4 16 13 21 21 13 21 -2 0 -10 -8 -17
-17z"/>
<path d="M6095 810 c-3 -5 -1 -10 4 -10 6 0 11 5 11 10 0 6 -2 10 -4 10 -3 0
-8 -4 -11 -10z"/>
<path d="M5550 1106 c0 -2 7 -7 16 -10 8 -3 12 -2 9 4 -6 10 -25 14 -25 6z"/>
<path d="M5490 1065 c0 -6 87 -45 98 -45 10 1 -22 19 -63 36 -19 8 -35 12 -35
9z"/>
<path d="M5994 1229 c-8 -14 14 -19 25 -6 8 10 7 14 -5 14 -8 0 -17 -4 -20 -8z"/>
<path d="M6045 1201 c-3 -5 -2 -12 3 -15 5 -3 9 1 9 9 0 17 -3 19 -12 6z"/>
<path d="M5879 963 c-13 -16 -12 -17 4 -4 9 7 17 15 17 17 0 8 -8 3 -21 -13z"/>
<path d="M5675 701 c23 -26 82 -71 72 -54 -4 6 -26 26 -50 44 -28 23 -36 26
-22 10z"/>
<path d="M3635 2840 l140 -5 -2 -35 -1 -35 11 33 c8 27 8 36 -4 43 -8 5 -75 8
-149 7 l-135 -2 140 -6z"/>
<path d="M3906 2806 c-27 -46 -32 -72 -17 -94 6 -11 13 -8 29 13 28 35 37 64
23 78 -26 26 -11 36 62 40 l72 3 -72 2 -71 2 -26 -44z"/>
<path d="M3406 2833 c-4 -4 -28 -10 -54 -14 l-47 -6 41 -2 c22 0 49 6 60 14
10 8 16 15 13 15 -3 0 -9 -3 -13 -7z"/>
<path d="M4103 2833 c15 -2 37 -2 50 0 12 2 0 4 -28 4 -27 0 -38 -2 -22 -4z"/>
<path d="M3208 2823 c18 -2 45 -2 60 0 15 2 0 4 -33 4 -33 0 -45 -2 -27 -4z"/>
<path d="M3465 2765 c6 -63 11 -73 44 -106 34 -34 131 -176 131 -193 0 -4 13
-26 30 -49 26 -38 30 -52 35 -141 6 -99 6 -100 -30 -167 -27 -52 -32 -69 -22
-77 9 -8 223 -17 294 -13 13 1 63 83 63 104 0 7 -11 24 -25 37 -14 13 -26 33
-26 44 -1 18 -2 19 -6 3 -3 -12 6 -30 22 -47 50 -53 34 -60 -126 -56 -77 2
-145 8 -150 13 -6 6 5 28 27 56 l37 47 -6 115 c-6 114 -7 116 -50 188 -93 152
-139 218 -165 234 -15 9 -40 30 -55 47 l-28 31 6 -70z"/>
<path d="M4182 2801 c-1 -21 -11 -45 -26 -60 -44 -47 -212 -298 -204 -306 3
-4 44 50 108 145 19 29 49 67 67 85 45 47 65 90 60 133 l-4 37 -1 -34z"/>
<path d="M3128 2813 c6 -2 18 -2 25 0 6 3 1 5 -13 5 -14 0 -19 -2 -12 -5z"/>
<path d="M3412 2804 c-19 -13 -39 -15 -120 -9 -74 5 -114 3 -169 -10 -70 -16
-168 -66 -208 -106 -11 -11 7 -2 40 19 99 66 141 77 295 77 91 0 142 4 158 13
21 12 22 11 22 -23 0 -19 4 -35 8 -35 7 0 6 53 -1 83 -1 4 -13 0 -25 -9z"/>
<path d="M3510 2809 c0 -12 238 -10 246 3 3 4 -51 8 -120 8 -82 0 -126 -4
-126 -11z"/>
<path d="M3964 2812 c3 -5 45 -12 93 -16 51 -4 90 -11 95 -19 5 -8 8 -5 8 9 0
19 -7 22 -67 27 -93 9 -135 9 -129 -1z"/>
<path d="M3088 2803 c7 -3 16 -2 19 1 4 3 -2 6 -13 5 -11 0 -14 -3 -6 -6z"/>
<path d="M3740 2769 c0 -30 72 -147 96 -156 8 -3 23 1 31 10 15 15 15 16 -4
11 -25 -7 -66 39 -99 111 -19 41 -24 45 -24 24z"/>
<path d="M2932 2731 c-22 -16 -43 -35 -47 -41 -5 -9 73 46 94 66 16 15 -13 -1
-47 -25z"/>
<path d="M2688 2733 c7 -3 16 -2 19 1 4 3 -2 6 -13 5 -11 0 -14 -3 -6 -6z"/>
<path d="M2756 2727 c4 -12 -2 -27 -19 -45 -14 -15 -28 -40 -32 -57 l-7 -30
21 25 c35 44 56 99 42 113 -10 9 -11 8 -5 -6z"/>
<path d="M2648 2723 c7 -3 16 -2 19 1 4 3 -2 6 -13 5 -11 0 -14 -3 -6 -6z"/>
<path d="M2578 2703 c7 -3 16 -2 19 1 4 3 -2 6 -13 5 -11 0 -14 -3 -6 -6z"/>
<path d="M2620 2690 c-36 -10 -80 -19 -98 -19 -18 -1 -31 -5 -28 -9 7 -12 107
3 181 27 77 25 32 25 -55 1z"/>
<path d="M2498 2693 c7 -3 16 -2 19 1 4 3 -2 6 -13 5 -11 0 -14 -3 -6 -6z"/>
<path d="M2455 2680 c-3 -6 1 -7 9 -4 18 7 21 14 7 14 -6 0 -13 -4 -16 -10z"/>
<path d="M3432 2660 c0 -14 2 -19 5 -12 2 6 2 18 0 25 -3 6 -5 1 -5 -13z"/>
<path d="M2420 2618 c-22 -40 -23 -41 -4 -54 10 -7 24 -18 31 -23 12 -11 29
-138 19 -148 -8 -9 24 -43 41 -43 9 0 14 19 15 68 4 130 -9 197 -44 224 -12 9
-26 18 -29 18 -3 0 -16 -19 -29 -42z"/>
<path d="M3185 2635 c-5 -2 -27 -6 -48 -10 -49 -8 -117 -69 -146 -130 -12 -25
-21 -50 -21 -57 1 -7 7 1 15 19 7 17 32 44 56 60 37 24 53 28 139 31 71 3 113
0 154 -12 31 -9 61 -14 66 -11 6 4 19 23 29 43 l19 36 -67 18 c-58 15 -168 23
-196 13z"/>
<path d="M2098 2603 c6 -2 18 -2 25 0 6 3 1 5 -13 5 -14 0 -19 -2 -12 -5z"/>
<path d="M2043 2593 c9 -2 23 -2 30 0 6 3 -1 5 -18 5 -16 0 -22 -2 -12 -5z"/>
<path d="M2130 2584 c-25 -7 -57 -13 -72 -13 -15 -1 -30 -6 -34 -12 -7 -12 52
-6 118 13 38 11 38 11 100 -50 35 -34 88 -79 119 -101 31 -22 68 -56 83 -75
27 -36 67 -48 81 -26 3 6 -1 7 -10 4 -11 -5 -30 8 -58 38 -23 24 -69 64 -102
88 -33 24 -84 68 -113 97 -29 29 -56 52 -60 52 -4 -1 -27 -7 -52 -15z"/>
<path d="M2789 2535 c-17 -35 -34 -85 -37 -110 -4 -25 -11 -44 -16 -43 -13 5
-23 -32 -30 -108 -3 -45 -2 -60 3 -44 8 23 9 23 10 -10 2 -81 48 -160 123
-214 31 -22 55 -29 129 -37 94 -9 154 -4 287 27 54 13 74 13 108 4 23 -7 47
-9 52 -6 18 11 63 99 59 115 -3 10 -5 7 -6 -6 -1 -26 -22 -30 -66 -13 -20 8
-49 5 -118 -12 -95 -23 -260 -30 -338 -15 -46 9 -123 76 -151 131 -17 32 -23
64 -26 143 -2 57 0 114 6 130 6 15 19 52 30 81 28 72 17 65 -19 -13z"/>
<path d="M1992 2578 c-12 -15 -52 -95 -52 -103 0 -3 14 -19 30 -34 l31 -27 0
-160 c0 -87 -4 -208 -8 -267 -5 -60 -6 -110 -4 -113 2 -2 14 13 26 33 29 50
37 125 37 383 l0 209 -34 30 c-32 30 -32 32 -14 46 11 8 15 15 9 15 -6 0 -15
-6 -21 -12z"/>
<path d="M2260 2555 c13 -14 26 -25 28 -25 3 0 -5 11 -18 25 -13 14 -26 25
-28 25 -3 0 5 -11 18 -25z"/>
<path d="M2667 2512 c7 -88 13 -92 13 -9 0 36 -4 68 -9 71 -5 3 -6 -24 -4 -62z"/>
<path d="M2702 2540 c0 -14 2 -19 5 -12 2 6 2 18 0 25 -3 6 -5 1 -5 -13z"/>
<path d="M1708 2523 c7 -3 16 -2 19 1 4 3 -2 6 -13 5 -11 0 -14 -3 -6 -6z"/>
<path d="M2320 2507 c14 -16 34 -33 45 -39 21 -11 20 -10 -35 37 l-35 30 25
-28z"/>
<path d="M1638 2513 c6 -2 18 -2 25 0 6 3 1 5 -13 5 -14 0 -19 -2 -12 -5z"/>
<path d="M1573 2503 c9 -2 25 -2 35 0 9 3 1 5 -18 5 -19 0 -27 -2 -17 -5z"/>
<path d="M1558 2472 c-70 -14 -125 -29 -123 -32 2 -4 24 -3 47 1 24 4 77 13
118 20 41 7 84 18 95 26 26 17 16 16 -137 -15z"/>
<path d="M1713 2476 c-23 -21 -31 -46 -15 -46 8 0 46 60 40 64 -1 2 -13 -6
-25 -18z"/>
<path d="M1423 2473 c9 -2 25 -2 35 0 9 3 1 5 -18 5 -19 0 -27 -2 -17 -5z"/>
<path d="M1370 2438 c-33 -54 -36 -77 -10 -95 30 -21 24 -64 -27 -178 -36 -81
-73 -174 -138 -348 -11 -31 -31 -64 -42 -72 -23 -16 -73 -99 -73 -121 0 -17
52 -18 153 -4 154 23 162 26 193 83 16 30 21 47 12 39 -9 -7 -78 -21 -154 -32
-160 -24 -181 -18 -122 33 44 39 39 29 123 252 37 99 87 226 111 282 46 107
48 142 9 157 -10 3 -15 12 -11 21 10 26 -3 16 -24 -17z"/>
<path d="M1661 2434 c-1 -25 20 -74 71 -164 21 -36 58 -124 83 -195 26 -72 53
-140 60 -152 25 -37 67 -72 82 -66 10 4 5 11 -16 24 -41 25 -73 84 -125 232
-24 71 -60 154 -79 186 -20 31 -45 79 -56 107 -12 30 -20 41 -20 28z"/>
<path d="M2941 2404 c-2 -77 23 -147 66 -184 l37 -32 100 4 c106 6 152 20 236
73 23 14 45 24 48 20 4 -4 10 -48 13 -98 l7 -92 -2 102 c-1 56 -5 105 -8 109
-4 3 -19 -3 -35 -14 -73 -51 -135 -73 -227 -81 -98 -8 -127 -3 -164 32 -36 33
-51 69 -61 144 -8 67 -8 67 -10 17z"/>
<path d="M1118 2433 c7 -3 16 -2 19 1 4 3 -2 6 -13 5 -11 0 -14 -3 -6 -6z"/>
<path d="M1158 2433 c6 -2 18 -2 25 0 6 3 1 5 -13 5 -14 0 -19 -2 -12 -5z"/>
<path d="M2435 2420 c10 -11 20 -20 23 -20 3 0 -3 9 -13 20 -10 11 -20 20 -23
20 -3 0 3 -9 13 -20z"/>
<path d="M3923 2360 c0 -47 2 -66 4 -42 2 23 2 61 0 85 -2 23 -4 4 -4 -43z"/>
<path d="M1043 2423 c9 -2 25 -2 35 0 9 3 1 5 -18 5 -19 0 -27 -2 -17 -5z"/>
<path d="M963 2413 c9 -2 25 -2 35 0 9 3 1 5 -18 5 -19 0 -27 -2 -17 -5z"/>
<path d="M1700 2416 c0 -11 50 -106 55 -106 3 0 -7 24 -21 53 -28 55 -34 65
-34 53z"/>
<path d="M830 2400 l-65 -7 60 0 c33 0 74 3 90 7 26 7 27 8 5 7 -14 0 -54 -3
-90 -7z"/>
<path d="M1085 2403 c-16 -2 -71 -10 -121 -18 -50 -8 -144 -15 -207 -15 -64 0
-118 -4 -121 -9 -10 -16 196 -10 337 10 197 27 200 27 217 -18 8 -21 17 -60
21 -88 l6 -50 2 50 c0 28 -7 71 -16 98 -18 51 -22 52 -118 40z"/>
<path d="M2972 2390 c0 -14 2 -19 5 -12 2 6 2 18 0 25 -3 6 -5 1 -5 -13z"/>
<path d="M3953 2360 c0 -30 2 -43 4 -27 2 15 2 39 0 55 -2 15 -4 2 -4 -28z"/>
<path d="M663 2393 c9 -2 23 -2 30 0 6 3 -1 5 -18 5 -16 0 -22 -2 -12 -5z"/>
<path d="M608 2383 c7 -3 16 -2 19 1 4 3 -2 6 -13 5 -11 0 -14 -3 -6 -6z"/>
<path d="M2683 2345 c0 -22 2 -30 4 -17 2 12 2 30 0 40 -3 9 -5 -1 -4 -23z"/>
<path d="M569 2328 c-22 -46 -22 -47 -3 -74 10 -14 24 -35 30 -46 7 -11 14
-112 19 -255 7 -225 6 -236 -13 -262 -10 -15 -29 -45 -40 -68 -32 -62 -19 -68
115 -54 60 6 127 11 150 11 40 0 45 3 73 48 16 26 29 54 29 62 -1 11 -3 10 -6
-2 -2 -10 -10 -18 -16 -19 -7 0 -37 -1 -67 -3 -30 -1 -97 -6 -147 -11 -107 -9
-111 -6 -60 57 l32 40 -3 260 c-3 272 -4 278 -51 338 l-19 24 -23 -46z"/>
<path d="M2980 2342 c0 -21 26 -65 51 -87 l24 -20 -22 25 c-12 14 -29 41 -37
60 -8 19 -15 29 -16 22z"/>
<path d="M1242 2310 c0 -14 2 -19 5 -12 2 6 2 18 0 25 -3 6 -5 1 -5 -13z"/>
<path d="M3380 2309 c-17 -13 -18 -17 -5 -10 33 17 51 31 40 31 -5 0 -21 -10
-35 -21z"/>
<path d="M1770 2280 c6 -11 13 -20 16 -20 2 0 0 9 -6 20 -6 11 -13 20 -16 20
-2 0 0 -9 6 -20z"/>
<path d="M2230 2249 c0 -49 2 -52 57 -102 31 -29 82 -78 112 -110 31 -33 74
-70 97 -83 22 -13 51 -35 64 -49 43 -46 87 -31 124 42 l16 31 -30 -11 c-26
-10 -32 -8 -74 31 -25 23 -49 42 -53 42 -5 0 -69 59 -143 130 -74 71 -143 130
-152 130 -15 0 -18 -9 -18 -51z"/>
<path d="M2673 2240 c0 -30 2 -43 4 -27 2 15 2 39 0 55 -2 15 -4 2 -4 -28z"/>
<path d="M2202 2260 c0 -14 2 -19 5 -12 2 6 2 18 0 25 -3 6 -5 1 -5 -13z"/>
<path d="M3916 2213 c7 -55 28 -93 50 -93 12 0 10 7 -10 31 -17 20 -26 43 -26
64 0 19 -4 37 -10 40 -6 4 -8 -11 -4 -42z"/>
<path d="M1547 2203 c-9 -27 -12 -52 -7 -58 4 -5 13 -30 20 -54 9 -35 9 -45
-2 -52 -17 -11 -9 -11 52 2 32 7 50 15 46 22 -2 7 -14 37 -26 67 -42 105 -50
120 -59 120 -5 0 -16 -21 -24 -47z"/>
<path d="M1790 2245 c0 -5 5 -17 10 -25 5 -8 10 -10 10 -5 0 6 -5 17 -10 25
-5 8 -10 11 -10 5z"/>
<path d="M3472 2230 c0 -14 2 -19 5 -12 2 6 2 18 0 25 -3 6 -5 1 -5 -13z"/>
<path d="M984 2231 c-104 -6 -134 -18 -134 -51 0 -25 11 -51 19 -46 3 2 49 5
101 7 76 3 98 7 108 21 19 25 29 22 37 -10 3 -16 11 -29 18 -30 56 -7 57 -7
83 36 21 35 22 42 9 42 -9 0 -28 6 -43 14 -39 20 -82 24 -198 17z"/>
<path d="M3153 2233 c15 -2 37 -2 50 0 12 2 0 4 -28 4 -27 0 -38 -2 -22 -4z"/>
<path d="M2194 2093 c3 -129 17 -173 54 -173 15 1 15 2 1 13 -30 23 -41 60
-49 171 l-9 111 3 -122z"/>
<path d="M1810 2195 c0 -5 5 -17 10 -25 5 -8 10 -10 10 -5 0 6 -5 17 -10 25
-5 8 -10 11 -10 5z"/>
<path d="M3472 2170 c0 -14 2 -19 5 -12 2 6 2 18 0 25 -3 6 -5 1 -5 -13z"/>
<path d="M826 2135 c3 -27 8 -53 10 -57 16 -26 181 -12 222 18 13 9 1 9 -43
-2 -69 -16 -133 -18 -155 -4 -8 5 -21 29 -27 52 l-13 43 6 -50z"/>
<path d="M2667 2085 c3 -49 7 -92 9 -94 7 -8 3 104 -6 144 -5 27 -6 11 -3 -50z"/>
<path d="M1088 2133 c-2 -5 -1 -57 3 -118 l5 -110 2 118 c2 105 -1 132 -10
110z"/>
<path d="M1507 2105 c-24 -50 -20 -58 4 -12 11 22 19 41 17 43 -3 2 -12 -12
-21 -31z"/>
<path d="M990 2120 c-20 -6 -21 -8 -5 -8 11 0 31 4 45 8 20 6 21 8 5 8 -11 0
-31 -4 -45 -8z"/>
<path d="M908 2103 c12 -2 30 -2 40 0 9 3 -1 5 -23 4 -22 0 -30 -2 -17 -4z"/>
<path d="M1122 1993 c-1 -56 -6 -104 -11 -107 -5 -4 -24 6 -42 21 -31 26 -39
28 -113 26 -43 -1 -83 -6 -87 -10 -4 -4 -10 -30 -12 -58 -3 -27 -3 -43 0 -33
3 11 18 17 51 20 54 5 88 -5 119 -34 29 -27 44 -20 77 36 25 43 27 53 23 143
l-3 98 -2 -102z"/>
<path d="M2703 2030 c0 -25 2 -35 4 -22 2 12 2 32 0 45 -2 12 -4 2 -4 -23z"/>
<path d="M1488 2023 c7 -3 16 -2 19 1 4 3 -2 6 -13 5 -11 0 -14 -3 -6 -6z"/>
<path d="M1570 2012 c-65 -11 -88 -12 -103 -2 -24 15 -35 4 -16 -16 14 -13 26
-13 108 0 86 14 111 21 100 29 -2 2 -42 -3 -89 -11z"/>
<path d="M2230 2004 c0 -10 5 -26 10 -34 8 -11 9 -7 4 15 -8 37 -14 45 -14 19z"/>
<path d="M2277 1916 c-4 -9 -33 -18 -79 -26 -40 -6 -93 -17 -118 -25 -25 -7
-79 -20 -120 -29 -225 -48 -264 -55 -269 -51 -2 3 5 22 17 43 31 55 19 66 -59
58 -81 -9 -209 -35 -231 -47 -22 -12 -23 -37 -2 -60 12 -13 21 -16 34 -9 9 5
48 14 86 20 38 6 80 13 94 15 46 9 55 -8 29 -53 -13 -22 -20 -44 -16 -48 8 -9
181 23 357 66 63 15 137 31 164 35 27 4 55 9 63 12 15 6 68 102 60 109 -3 3
-7 -2 -10 -10z"/>
<path d="M4445 1880 c-12 -5 4 -6 40 -3 33 3 62 7 64 9 9 8 -85 2 -104 -6z"/>
<path d="M4668 1883 c7 -3 16 -2 19 1 4 3 -2 6 -13 5 -11 0 -14 -3 -6 -6z"/>
<path d="M822 1809 c-2 -53 2 -71 19 -93 11 -14 28 -26 37 -26 10 0 13 3 7 8
-34 25 -50 59 -56 116 l-6 61 -1 -66z"/>
<path d="M4520 1860 c-76 -7 -169 -40 -192 -67 -7 -9 1 -7 23 5 48 28 100 40
200 47 94 6 159 -8 205 -44 27 -22 73 -26 109 -11 15 7 9 9 -26 9 -29 1 -55 8
-70 20 -27 21 -122 52 -153 50 -12 -1 -55 -5 -96 -9z"/>
<path d="M4108 1853 c6 -2 18 -2 25 0 6 3 1 5 -13 5 -14 0 -19 -2 -12 -5z"/>
<path d="M4337 1835 c-20 -14 -37 -28 -37 -31 0 -3 12 3 28 14 15 10 36 24 47
30 11 6 15 12 10 12 -6 0 -27 -11 -48 -25z"/>
<path d="M4760 1856 c0 -2 8 -10 18 -17 15 -13 16 -12 3 4 -13 16 -21 21 -21
13z"/>
<path d="M3878 1833 c34 -2 88 -2 120 0 31 2 3 3 -63 3 -66 0 -92 -1 -57 -3z"/>
<path d="M3778 1823 c7 -3 16 -2 19 1 4 3 -2 6 -13 5 -11 0 -14 -3 -6 -6z"/>
<path d="M4085 1820 c-11 -5 -73 -9 -139 -9 -151 -1 -222 -19 -303 -77 -34
-24 -65 -49 -69 -55 -3 -6 22 10 56 35 34 25 78 51 98 57 20 6 105 15 187 19
83 4 160 11 173 15 14 5 28 2 38 -6 14 -12 16 -11 13 6 -5 22 -25 28 -54 15z"/>
<path d="M4813 1823 c9 -2 25 -2 35 0 9 3 1 5 -18 5 -19 0 -27 -2 -17 -5z"/>
<path d="M4889 1817 c12 -15 8 -26 -33 -87 -26 -38 -51 -72 -56 -75 -5 -3 -50
8 -101 26 -73 25 -102 30 -150 27 -66 -5 -95 -24 -85 -56 9 -27 55 -42 127
-42 82 0 218 -50 270 -100 21 -20 39 -33 39 -29 0 13 -83 79 -107 85 -27 7
-22 19 38 99 20 28 47 70 59 94 21 42 21 44 4 60 -17 15 -17 15 -5 -2z"/>
<path d="M3738 1813 c7 -3 16 -2 19 1 4 3 -2 6 -13 5 -11 0 -14 -3 -6 -6z"/>
<path d="M4152 1785 c-17 -37 -14 -45 4 -12 9 16 14 31 11 33 -2 2 -9 -7 -15
-21z"/>
<path d="M851 1784 c0 -12 7 -28 17 -35 15 -12 16 -12 6 1 -7 8 -14 24 -17 35
-4 19 -5 19 -6 -1z"/>
<path d="M1366 1792 c-7 -12 18 -46 32 -41 6 3 3 13 -8 27 -10 12 -21 18 -24
14z"/>
<path d="M3642 1771 c-22 -16 -43 -35 -47 -41 -5 -9 73 46 94 66 16 15 -13 -1
-47 -25z"/>
<path d="M4250 1708 c-62 -127 -54 -219 25 -285 40 -33 43 -38 27 -50 -12 -10
-7 -9 15 2 43 20 48 20 123 -17 51 -25 78 -31 125 -31 l60 1 -50 -8 c-47 -6
-45 -7 31 -8 88 -2 104 5 104 50 0 38 -30 54 -114 62 -157 13 -261 53 -309
117 -30 42 -35 144 -9 202 35 78 14 53 -28 -35z"/>
<path d="M3380 1756 c0 -2 13 -6 29 -8 17 -2 28 -1 25 4 -5 8 -54 12 -54 4z"/>
<path d="M3328 1743 c6 -2 18 -2 25 0 6 3 1 5 -13 5 -14 0 -19 -2 -12 -5z"/>
<path d="M4105 1689 l-26 -51 -97 7 c-155 10 -238 -24 -305 -125 -24 -35 -21
-54 4 -29 36 36 109 61 189 65 52 3 69 1 55 -5 -14 -7 3 -9 60 -9 44 0 72 2
62 5 -16 4 -17 7 -4 21 19 23 100 172 93 172 -3 0 -17 -23 -31 -51z"/>
<path d="M887 1719 c7 -7 15 -10 18 -7 3 3 -2 9 -12 12 -14 6 -15 5 -6 -5z"/>
<path d="M3258 1723 c7 -3 16 -2 19 1 4 3 -2 6 -13 5 -11 0 -14 -3 -6 -6z"/>
<path d="M3305 1710 c-38 -11 -84 -20 -102 -20 -17 0 -35 -4 -38 -10 -11 -18
216 22 240 42 15 13 -25 8 -100 -12z"/>
<path d="M3408 1698 c-26 -27 -46 -73 -36 -83 2 -3 19 20 37 51 19 30 32 56
30 58 -2 2 -16 -10 -31 -26z"/>
<path d="M3148 1713 c-19 -5 -68 -83 -68 -108 0 -9 10 -25 22 -35 25 -20 51
-125 37 -151 -6 -12 -1 -23 16 -39 29 -28 31 -24 38 75 7 88 -14 184 -43 204
-11 7 -20 19 -20 27 0 12 11 15 90 27 14 3 7 4 -15 4 -22 1 -48 -1 -57 -4z"/>
<path d="M3547 1688 c-27 -37 -45 -69 -30 -53 18 19 64 85 59 85 -3 0 -16 -15
-29 -32z"/>
<path d="M4432 1646 c5 -48 44 -68 145 -76 101 -9 212 -47 256 -88 26 -25 51
-90 60 -157 3 -24 4 -22 6 11 2 67 -25 140 -64 171 -50 40 -178 82 -251 83
-83 0 -123 16 -140 54 l-14 31 2 -29z"/>
<path d="M2768 1633 c6 -2 18 -2 25 0 6 3 1 5 -13 5 -14 0 -19 -2 -12 -5z"/>
<path d="M2703 1623 c9 -2 25 -2 35 0 9 3 1 5 -18 5 -19 0 -27 -2 -17 -5z"/>
<path d="M2805 1615 c-22 -8 -57 -14 -77 -14 -21 -1 -38 -6 -38 -12 0 -12 79
-4 123 13 27 10 32 7 100 -59 40 -39 93 -84 118 -101 25 -17 58 -47 73 -66 30
-40 61 -60 77 -50 6 3 -2 14 -19 24 -16 10 -39 32 -51 49 -13 17 -48 49 -79
70 -31 22 -84 67 -117 100 -33 34 -62 61 -65 60 -3 -1 -23 -7 -45 -14z"/>
<path d="M2940 1576 c30 -32 75 -71 100 -87 25 -17 32 -20 15 -7 -16 13 -61
52 -100 88 l-70 64 55 -58z"/>
<path d="M3343 1565 c-1 -38 2 -108 6 -155 l8 -85 0 70 c1 39 -2 108 -6 155
l-8 85 0 -70z"/>
<path d="M2660 1610 c-9 -6 -10 -10 -3 -10 6 0 15 5 18 10 8 12 4 12 -15 0z"/>
<path d="M2588 1603 c7 -3 16 -2 19 1 4 3 -2 6 -13 5 -11 0 -14 -3 -6 -6z"/>
<path d="M3465 1543 c-15 -32 -35 -76 -46 -99 -10 -23 -19 -47 -20 -55 0 -8
-4 -5 -9 6 -6 14 -9 2 -9 -41 -2 -129 35 -237 103 -303 81 -79 324 -94 466
-29 25 11 67 26 93 33 27 8 63 25 82 39 41 31 94 34 139 7 17 -10 71 -29 120
-41 73 -18 110 -21 210 -18 110 3 125 6 166 30 44 25 86 77 144 180 21 36 26
57 23 90 l-4 43 -1 -47 c-2 -39 -10 -57 -49 -110 -39 -50 -58 -66 -98 -81
-105 -40 -377 -14 -471 43 -23 15 -43 20 -59 16 -21 -5 -27 -1 -39 26 l-14 33
-1 -32 c-1 -27 -9 -39 -43 -63 -22 -16 -52 -30 -65 -30 -13 0 -43 -10 -66 -22
-66 -33 -135 -48 -232 -48 -129 0 -219 26 -263 77 -59 68 -75 110 -80 203 -4
77 -1 93 27 165 17 43 29 81 27 83 -2 2 -16 -23 -31 -55z"/>
<path d="M2483 1583 c9 -2 25 -2 35 0 9 3 1 5 -18 5 -19 0 -27 -2 -17 -5z"/>
<path d="M3372 1565 c0 -16 2 -22 5 -12 2 9 2 23 0 30 -3 6 -5 -1 -5 -18z"/>
<path d="M2555 1570 c-16 -4 -62 -13 -102 -20 -40 -7 -70 -16 -68 -20 4 -7
182 24 225 39 l25 9 -25 0 c-14 0 -38 -3 -55 -8z"/>
<path d="M2630 1543 c-21 -31 -25 -48 -26 -117 l-1 -81 4 73 4 73 28 -20 28
-20 -3 -262 c-2 -143 -6 -264 -9 -267 -3 -4 -14 -1 -23 4 -12 8 -19 30 -23 80
l-5 69 -2 -67 c-2 -61 0 -68 24 -87 30 -23 44 -27 44 -10 0 6 8 23 19 37 15
22 20 55 26 182 5 85 7 209 6 275 -2 114 -4 121 -29 148 -14 15 -28 27 -31 27
-3 0 -17 -17 -31 -37z"/>
<path d="M2358 1553 c-21 -24 -48 -78 -48 -96 0 -8 9 -22 19 -31 26 -24 32
-76 35 -336 2 -145 -1 -220 -8 -229 -8 -11 -8 -13 3 -9 8 2 24 17 35 32 19 26
21 42 21 219 1 106 -1 234 -4 286 -4 83 -7 95 -29 116 -29 27 -24 51 10 58 21
4 21 4 2 6 -11 0 -28 -7 -36 -16z"/>
<path d="M4088 1553 c6 -2 18 -2 25 0 6 3 1 5 -13 5 -14 0 -19 -2 -12 -5z"/>
<path d="M3835 1490 c-40 -63 -45 -86 -40 -165 3 -53 1 -75 -8 -78 -6 -2 -4
-3 6 -2 9 2 17 -1 17 -6 0 -12 71 -11 89 0 10 6 -1 8 -29 4 l-44 -6 41 41 c23
23 47 42 55 42 21 0 35 -13 39 -35 4 -19 5 -19 27 3 26 26 33 112 8 112 -8 0
-22 3 -30 6 -11 4 -29 -8 -56 -37 -27 -29 -43 -40 -50 -33 -16 16 -17 159 -1
178 7 9 11 16 7 16 -3 0 -17 -18 -31 -40z"/>
<path d="M3983 1521 c-57 -4 -97 -11 -105 -20 -11 -11 -10 -12 7 -8 11 3 70 8
132 12 l111 5 21 -26 c15 -19 21 -22 21 -10 0 26 -37 56 -67 54 -16 -1 -69 -4
-120 -7z"/>
<path d="M2150 1511 c30 -4 65 -12 78 -19 12 -7 22 -10 22 -8 0 15 -65 36
-107 35 l-48 -2 55 -6z"/>
<path d="M2043 1503 c9 -2 23 -2 30 0 6 3 -1 5 -18 5 -16 0 -22 -2 -12 -5z"/>
<path d="M1998 1493 c7 -3 16 -2 19 1 4 3 -2 6 -13 5 -11 0 -14 -3 -6 -6z"/>
<path d="M1958 1483 c7 -3 16 -2 19 1 4 3 -2 6 -13 5 -11 0 -14 -3 -6 -6z"/>
<path d="M2020 1470 c-47 -11 -128 -24 -180 -31 -52 -6 -102 -15 -110 -20 -24
-15 125 0 220 22 47 11 119 22 160 25 64 5 80 2 107 -15 41 -26 60 -63 72
-142 l10 -64 -4 72 c-5 88 -24 127 -75 153 -48 24 -89 24 -200 0z"/>
<path d="M3631 1474 c0 -11 3 -14 6 -6 3 7 2 16 -1 19 -3 4 -6 -2 -5 -13z"/>
<path d="M1918 1473 c7 -3 16 -2 19 1 4 3 -2 6 -13 5 -11 0 -14 -3 -6 -6z"/>
<path d="M2281 1450 c29 -45 29 -45 29 -34 0 5 -12 23 -26 39 l-26 30 23 -35z"/>
<path d="M2574 1395 c0 -49 1 -71 3 -48 2 23 2 64 0 90 -2 26 -3 8 -3 -42z"/>
<path d="M1833 1463 c15 -2 37 -2 50 0 12 2 0 4 -28 4 -27 0 -38 -2 -22 -4z"/>
<path d="M1758 1453 c6 -2 18 -2 25 0 6 3 1 5 -13 5 -14 0 -19 -2 -12 -5z"/>
<path d="M4172 1430 c0 -14 2 -19 5 -12 2 6 2 18 0 25 -3 6 -5 1 -5 -13z"/>
<path d="M1682 1424 c-6 -11 -11 -13 -16 -5 -4 6 -12 11 -19 11 -6 0 -4 -6 5
-12 17 -13 51 -125 43 -138 -3 -4 0 -75 5 -158 12 -201 -1 -383 -31 -446 -13
-25 -20 -49 -16 -52 4 -4 37 -2 74 4 38 7 101 17 140 23 71 10 74 12 98 52 13
23 23 42 22 44 -4 4 -151 -18 -212 -32 -33 -8 -64 -10 -68 -6 -4 4 4 31 19 60
l27 52 0 270 -1 269 -32 30 c-17 16 -29 34 -25 40 3 5 4 10 1 10 -3 0 -9 -7
-14 -16z"/>
<path d="M3624 1382 c7 -110 69 -172 188 -188 48 -6 140 22 180 57 16 13 3 10
-45 -12 -59 -27 -76 -31 -123 -26 -109 11 -175 71 -194 177 l-9 55 3 -63z"/>
<path d="M1543 1423 c9 -2 25 -2 35 0 9 3 1 5 -18 5 -19 0 -27 -2 -17 -5z"/>
<path d="M4911 1414 c0 -11 3 -14 6 -6 3 7 2 16 -1 19 -3 4 -6 -2 -5 -13z"/>
<path d="M1498 1413 c7 -3 16 -2 19 1 4 3 -2 6 -13 5 -11 0 -14 -3 -6 -6z"/>
<path d="M3651 1404 c0 -11 3 -14 6 -6 3 7 2 16 -1 19 -3 4 -6 -2 -5 -13z"/>
<path d="M1433 1403 c9 -2 23 -2 30 0 6 3 -1 5 -18 5 -16 0 -22 -2 -12 -5z"/>
<path d="M1336 1393 c-3 -4 -39 -10 -79 -14 l-72 -7 70 3 c39 2 88 8 110 13
38 9 38 10 9 11 -17 0 -34 -2 -38 -6z"/>
<path d="M1440 1379 c-58 -10 -153 -23 -212 -28 -91 -8 -148 -22 -148 -35 0
-2 17 0 38 5 20 5 62 9 93 9 31 0 87 6 125 14 38 8 118 22 178 32 129 20 131
18 141 -75 10 -83 16 -86 11 -6 -7 102 -9 105 -70 104 -28 -1 -98 -10 -156
-20z"/>
<path d="M2312 1380 c0 -14 2 -19 5 -12 2 6 2 18 0 25 -3 6 -5 1 -5 -13z"/>
<path d="M4162 1360 c0 -19 2 -27 5 -17 2 9 2 25 0 35 -3 9 -5 1 -5 -18z"/>
<path d="M4191 1374 c0 -11 3 -14 6 -6 3 7 2 16 -1 19 -3 4 -6 -2 -5 -13z"/>
<path d="M1128 1363 c7 -3 16 -2 19 1 4 3 -2 6 -13 5 -11 0 -14 -3 -6 -6z"/>
<path d="M3661 1354 c0 -11 3 -14 6 -6 3 7 2 16 -1 19 -3 4 -6 -2 -5 -13z"/>
<path d="M1080 1350 c-8 -5 -10 -10 -5 -10 6 0 17 5 25 10 8 5 11 10 5 10 -5
0 -17 -5 -25 -10z"/>
<path d="M4314 1345 c-17 -13 -16 -14 11 -4 26 10 41 6 118 -30 78 -36 98 -41
161 -41 44 0 79 5 90 13 15 11 8 12 -49 6 -80 -8 -111 -2 -192 39 -68 35 -109
40 -139 17z"/>
<path d="M2323 1310 c0 -25 2 -35 4 -22 2 12 2 32 0 45 -2 12 -4 2 -4 -23z"/>
<path d="M688 1333 c12 -2 30 -2 40 0 9 3 -1 5 -23 4 -22 0 -30 -2 -17 -4z"/>
<path d="M818 1333 c7 -3 16 -2 19 1 4 3 -2 6 -13 5 -11 0 -14 -3 -6 -6z"/>
<path d="M4259 1323 c-13 -16 -12 -17 4 -4 9 7 17 15 17 17 0 8 -8 3 -21 -13z"/>
<path d="M879 1319 c14 -5 30 -13 36 -17 6 -4 2 1 -8 11 -11 9 -27 17 -36 16
-10 0 -7 -4 8 -10z"/>
<path d="M1050 1310 c-6 -11 -15 -18 -20 -15 -4 3 -6 -4 -3 -14 3 -12 -7 -37
-24 -63 -17 -24 -38 -55 -47 -70 -20 -34 -37 -35 -136 -7 -108 30 -220 13
-220 -34 0 -39 18 -47 104 -47 45 0 106 -7 136 -15 30 -8 56 -15 56 -15 1 0
23 34 49 75 25 41 48 75 50 75 1 0 1 -28 -2 -62 -2 -35 0 -70 6 -78 9 -12 14
-11 38 12 51 49 160 77 179 46 4 -6 7 -100 6 -207 -1 -191 -2 -198 -28 -253
-37 -77 -29 -92 39 -83 28 4 68 11 87 16 19 5 56 9 83 9 54 0 74 15 108 82
l21 42 -30 27 c-17 15 -32 35 -35 46 -4 17 -5 17 -6 -1 0 -11 14 -32 32 -47
28 -24 30 -29 17 -42 -13 -13 -87 -26 -242 -44 -58 -7 -63 9 -20 64 l27 36 0
212 c0 247 -1 251 -74 240 -55 -8 -77 -19 -114 -54 -24 -22 -29 -23 -38 -11
-11 17 -3 138 11 176 12 29 5 31 -10 4z"/>
<path d="M1982 1320 c-41 -10 -41 -9 -44 -50 l-3 -35 64 4 c45 2 66 -1 72 -11
14 -21 11 -26 -18 -31 -26 -4 -26 -4 5 -6 44 -2 72 28 72 77 0 21 -5 43 -12
50 -13 13 -84 14 -136 2z"/>
<path d="M2907 1323 c-4 -3 -7 -27 -7 -53 0 -46 0 -46 129 -170 152 -147 226
-210 247 -210 29 0 54 21 75 61 l20 41 -31 -7 c-26 -6 -36 -1 -69 28 -22 20
-48 40 -58 45 -10 6 -79 69 -153 141 -74 72 -137 131 -141 131 -3 0 -9 -3 -12
-7z"/>
<path d="M3679 1313 c13 -25 58 -63 75 -63 6 0 2 5 -9 11 -11 6 -33 25 -49 42
-19 21 -24 25 -17 10z"/>
<path d="M665 1305 c-85 -11 -144 -33 -190 -69 -11 -9 8 -2 42 15 116 56 296
60 381 7 30 -19 37 -19 73 -8 21 7 39 17 39 21 0 4 -14 3 -31 -3 -26 -9 -38
-7 -82 15 -67 33 -121 38 -232 22z"/>
<path d="M503 1290 c-46 -27 -41 -34 5 -8 46 27 48 28 36 28 -5 0 -24 -9 -41
-20z"/>
<path d="M2872 1290 c0 -14 2 -19 5 -12 2 6 2 18 0 25 -3 6 -5 1 -5 -13z"/>
<path d="M2566 1106 c3 -114 9 -195 16 -203 6 -7 19 -13 30 -13 17 0 16 2 -6
23 -25 21 -26 27 -35 202 l-10 180 5 -189z"/>
<path d="M4158 1250 c2 -22 6 -40 8 -40 2 0 4 18 4 40 0 22 -3 40 -8 40 -4 0
-6 -18 -4 -40z"/>
<path d="M2594 1190 c0 -52 1 -74 3 -47 2 26 2 68 0 95 -2 26 -3 4 -3 -48z"/>
<path d="M3342 1255 c0 -16 2 -22 5 -12 2 9 2 23 0 30 -3 6 -5 -1 -5 -18z"/>
<path d="M3371 1254 c0 -11 3 -14 6 -6 3 7 2 16 -1 19 -3 4 -6 -2 -5 -13z"/>
<path d="M3930 1260 c-9 -6 -10 -10 -3 -10 6 0 15 5 18 10 8 12 4 12 -15 0z"/>
<path d="M1906 1206 c2 -33 6 -62 8 -64 16 -15 165 9 189 30 12 11 16 16 8 12
-22 -11 -162 -33 -176 -28 -8 3 -18 29 -24 57 l-10 52 5 -59z"/>
<path d="M1486 1219 c-23 -18 -26 -27 -25 -72 1 -29 4 -40 6 -24 4 24 8 27 45
27 22 0 55 -7 74 -16 44 -21 58 -14 84 37 12 22 17 39 12 35 -5 -3 -26 4 -48
14 -51 26 -114 26 -148 -1z"/>
<path d="M1433 1140 c0 -30 2 -43 4 -27 2 15 2 39 0 55 -2 15 -4 2 -4 -28z"/>
<path d="M1988 1183 c7 -3 16 -2 19 1 4 3 -2 6 -13 5 -11 0 -14 -3 -6 -6z"/>
<path d="M2862 1125 c-1 -87 11 -152 32 -173 25 -25 30 -6 6 26 -17 23 -24 51
-29 123 -8 93 -8 93 -9 24z"/>
<path d="M373 1124 c-20 -43 -27 -74 -27 -114 1 -86 19 -127 70 -159 24 -16
42 -30 39 -33 -2 -2 11 -2 31 0 22 3 54 -4 87 -19 41 -18 68 -22 127 -20 53 1
71 -1 60 -9 -12 -7 -8 -10 18 -10 36 0 72 29 72 59 0 34 -38 51 -116 51 -39 0
-95 5 -124 10 -67 13 -158 58 -182 90 -23 31 -36 112 -27 165 4 22 5 42 3 44
-2 2 -16 -23 -31 -55z"/>
<path d="M2232 1104 l-54 -55 26 -37 c34 -48 70 -91 60 -72 -4 8 -18 29 -31
46 -28 38 -28 38 1 77 22 29 60 98 54 96 -2 0 -27 -25 -56 -55z"/>
<path d="M3343 1070 c0 -36 2 -50 4 -32 2 17 2 47 0 65 -2 17 -4 3 -4 -33z"/>
<path d="M560 1087 c0 -10 11 -29 25 -42 22 -23 32 -25 114 -25 50 0 110 -6
133 -14 24 -8 56 -17 72 -20 70 -17 103 -61 115 -159 l8 -62 2 51 c3 111 -39
169 -139 194 -25 6 -63 16 -85 21 -22 6 -61 8 -87 5 -62 -7 -108 7 -135 41
-18 23 -23 24 -23 10z"/>
<path d="M1427 968 c6 -136 11 -147 12 -23 0 55 -3 106 -8 113 -4 7 -6 -33 -4
-90z"/>
<path d="M3372 1030 c0 -19 2 -27 5 -17 2 9 2 25 0 35 -3 9 -5 1 -5 -18z"/>
<path d="M2150 1035 c0 -10 17 -41 38 -69 21 -28 45 -63 55 -78 22 -35 61 -61
84 -56 14 4 10 8 -17 22 -19 10 -49 38 -67 64 -84 123 -93 135 -93 117z"/>
<path d="M2901 1024 c0 -11 3 -14 6 -6 3 7 2 16 -1 19 -3 4 -6 -2 -5 -13z"/>
<path d="M1464 940 c0 -52 1 -74 3 -47 2 26 2 68 0 95 -2 26 -3 4 -3 -48z"/>
<path d="M973 1002 c15 -10 34 -27 43 -38 15 -18 15 -18 5 2 -10 21 -52 54
-68 54 -4 0 4 -8 20 -18z"/>
<path d="M1938 978 c-1 -18 0 -62 1 -98 3 -57 7 -68 32 -92 16 -15 29 -24 29
-21 0 3 17 -14 38 -38 l39 -43 84 13 c46 7 120 22 164 32 44 11 141 31 215 44
74 14 167 32 205 40 39 8 90 17 116 20 43 5 47 9 75 60 l29 55 -30 27 c-26 25
-27 25 -7 2 40 -46 32 -53 -74 -64 -38 -4 -80 -12 -94 -17 -14 -5 -77 -18
-140 -29 -63 -10 -173 -32 -245 -48 -141 -32 -221 -46 -245 -42 -30 5 -59 45
-90 121 -33 81 -55 110 -83 110 -12 0 -18 -10 -19 -32z m61 -191 c1 -4 -10 0
-24 9 -20 13 -25 24 -24 58 l1 41 23 -50 c13 -27 24 -53 24 -58z"/>
<path d="M1911 984 c0 -11 3 -14 6 -6 3 7 2 16 -1 19 -3 4 -6 -2 -5 -13z"/>
<path d="M1907 870 c3 -51 11 -91 19 -99 20 -21 30 -4 11 17 -10 11 -17 37
-18 63 -1 24 -5 58 -9 74 -5 18 -6 -4 -3 -55z"/>
<path d="M2285 900 c10 -11 20 -20 23 -20 3 0 -3 9 -13 20 -10 11 -20 20 -23
20 -3 0 3 -9 13 -20z"/>
<path d="M1052 855 c0 -16 2 -22 5 -12 2 9 2 23 0 30 -3 6 -5 -1 -5 -18z"/>
<path d="M1426 785 c6 -49 44 -108 60 -92 4 4 -5 18 -19 31 -15 14 -27 35 -28
48 0 13 -5 32 -10 43 -6 14 -7 4 -3 -30z"/>
<path d="M454 785 c-18 -14 -17 -14 14 -9 23 5 54 -2 110 -24 42 -16 85 -32
95 -36 30 -10 149 11 166 30 15 15 14 15 -9 4 -14 -8 -59 -13 -100 -14 -64 0
-85 5 -143 32 -76 36 -104 39 -133 17z"/>
<path d="M1051 786 c-1 -26 -52 -104 -93 -143 -49 -46 -115 -64 -243 -66 -123
-2 -210 12 -262 43 -19 11 -52 20 -74 20 -21 0 -39 2 -39 4 0 16 25 65 51 100
l31 41 -31 -35 c-40 -44 -90 -132 -98 -170 -5 -29 -5 -30 36 -30 23 0 59 -9
80 -19 58 -30 160 -44 290 -39 177 6 213 28 315 197 28 46 46 87 43 98 -4 17
-5 17 -6 -1z"/>
<path d="M708 753 c6 -2 18 -2 25 0 6 3 1 5 -13 5 -14 0 -19 -2 -12 -5z"/>
</g>
</svg>
